# xmcd
#
# Track frame offsets:
#	150
#	15352
#	33350
#	46337
#	61435
#	85649
#	97871
#	107672
#	122190
#	140592
#	158539
#	159415
#	174165
#	185916
#	201117
#	210019
#	218436
#	235113
#	240189
#	252015
#	262828
#	272034
#	282960
#	286674
#	289506
#	294668
#	296475
#	308976
#	310758
#	313284
#	323711
#	326416
#	331910
#	337131
#	354781
#	357082
#
# Disc length: 4791 seconds
#
# Revision: 0
# Processed by: cddbd v1.5.2PL0 Copyright (c) Steve Scherf et al.
# Submitted via: EasyCDDAExtractor 10.2.0.1
#
DISCID=f712b524
DTITLE=Robin Clayton - The Gospel According To Grass
DYEAR=2007
DGENRE=Gospel
TTITLE0=Victory In Jesus
TTITLE1=Watching You
TTITLE2=Praise Him Amen
TTITLE3=Get On The Train
TTITLE4=Forever
TTITLE5=The Darkness Will Be Gone
TTITLE6=You Can't Buy Your Way
TTITLE7=Once And For All
TTITLE8=Sow Today And Reap Tomorrow
TTITLE9=Kneel And Pray
TTITLE10=Intro
TTITLE11=The Gospel According To Grass
TTITLE12=Old Man Johnson
TTITLE13=A Beautiful Life
TTITLE14=Can't Get Around The Bible
TTITLE15=Saints Then And Now
TTITLE16=Tippah River Swamp Rat
TTITLE17=Halleljah He Is Risen
TTITLE18=No Hope
TTITLE19=Thank God I'm Going There
TTITLE20=Only The Blood
TTITLE21=Too Old To Die Young
TTITLE22=Tribute Intro
TTITLE23=Joe Luna
TTITLE24=Ferman Smith
TTITLE25=Daddy Leland Vernell
TTITLE26=Uncle June
TTITLE27=Curtis Wilbanks
TTITLE28=Arlon/Terry/Robin
TTITLE29=Arlon Garrett
TTITLE30=Jim Wall
TTITLE31=Hayden Armstrong
TTITLE32=Rayburn Duncan
TTITLE33=Marlin Hastings
TTITLE34=Walk It 
TTITLE35=Uncle Des
EXTD=
EXTT0=
EXTT1=
EXTT2=
EXTT3=
EXTT4=
EXTT5=
EXTT6=
EXTT7=
EXTT8=
EXTT9=
EXTT10=
EXTT11=
EXTT12=
EXTT13=
EXTT14=
EXTT15=
EXTT16=
EXTT17=
EXTT18=
EXTT19=
EXTT20=
EXTT21=
EXTT22=
EXTT23=
EXTT24=
EXTT25=
EXTT26=
EXTT27=
EXTT28=
EXTT29=
EXTT30=
EXTT31=
EXTT32=
EXTT33=
EXTT34=
EXTT35=
PLAYORDER=
